<svg id="Icono_usuario" xmlns="http://www.w3.org/2000/svg" width="16.401" height="19.282" viewBox="0 0 16.401 19.282">
  <g id="Grupo_2" data-name="Grupo 2">
    <path id="Trazado_60" data-name="Trazado 60" d="M141.179,10.39h.128a3.684,3.684,0,0,0,2.815-1.218c1.537-1.733,1.282-4.7,1.254-4.987A4.074,4.074,0,0,0,143.439.563,4.439,4.439,0,0,0,141.291,0h-.068a4.446,4.446,0,0,0-2.148.547,4.076,4.076,0,0,0-1.961,3.638c-.028.283-.284,3.254,1.254,4.987A3.67,3.67,0,0,0,141.179,10.39Zm-3-6.105c0-.012,0-.024,0-.032.132-2.863,2.164-3.17,3.035-3.17h.048c1.078.024,2.911.463,3.035,3.17a.078.078,0,0,0,0,.032c0,.028.283,2.743-.986,4.173a2.617,2.617,0,0,1-2.056.854h-.04a2.609,2.609,0,0,1-2.052-.854C137.9,7.036,138.176,4.308,138.18,4.284Z" transform="translate(-133.048)" fill="#fff"/>
    <path id="Trazado_61" data-name="Trazado 61" d="M52.473,264.21V264.2c0-.032,0-.064,0-.1-.024-.791-.076-2.639-1.809-3.23l-.04-.012a11.523,11.523,0,0,1-3.314-1.509.539.539,0,0,0-.619.882,12.435,12.435,0,0,0,3.646,1.665c.93.331,1.034,1.326,1.062,2.236a.8.8,0,0,0,0,.1,7.247,7.247,0,0,1-.084,1.234,14.694,14.694,0,0,1-7.04,1.637,14.779,14.779,0,0,1-7.044-1.641,6.861,6.861,0,0,1-.084-1.234c0-.032,0-.064,0-.1.028-.91.132-1.9,1.062-2.236a12.551,12.551,0,0,0,3.646-1.665.539.539,0,0,0-.619-.882,11.4,11.4,0,0,1-3.314,1.509l-.04.012c-1.733.595-1.785,2.444-1.809,3.23a.8.8,0,0,1,0,.1v.012a6.123,6.123,0,0,0,.2,1.809.512.512,0,0,0,.208.252,15.1,15.1,0,0,0,7.794,1.909,15.149,15.149,0,0,0,7.794-1.909.534.534,0,0,0,.208-.252A6.424,6.424,0,0,0,52.473,264.21Z" transform="translate(-36.073 -248.893)" fill="#fff"/>
  </g>
</svg>
