<svg id="Icono_cerrar_sesion" xmlns="http://www.w3.org/2000/svg" width="17.595" height="17.595" viewBox="0 0 17.595 17.595">
  <g id="Icono_Cerrar_sesion-2" data-name="Icono_Cerrar_sesion">
    <path id="Trazado_4030" data-name="Trazado 4030" d="M277.882,209.108h6.965a.55.55,0,0,0,0-1.1h-6.965a.55.55,0,0,0,0,1.1Zm0,0" transform="translate(-277.331 -200.86)" fill="#00003d"/>
    <path id="Trazado_4031" data-name="Trazado 4031" d="M403.3,134.569a.55.55,0,0,0,.389-.939l-2.361-2.361,2.361-2.361a.55.55,0,0,0-.778-.778l-2.749,2.749a.55.55,0,0,0,0,.778l2.749,2.749A.546.546,0,0,0,403.3,134.569Zm0,0" transform="translate(-400.004 -123.573)" fill="#00003d"/>
    <path id="Trazado_4032" data-name="Trazado 4032" d="M1.466,17.6a1.511,1.511,0,0,0,.455-.068l4.412-1.47a1.48,1.48,0,0,0,1-1.394V1.474A1.468,1.468,0,0,0,5.864.008,1.512,1.512,0,0,0,5.41.076L1,1.546A1.48,1.48,0,0,0,0,2.94v13.2A1.468,1.468,0,0,0,1.466,17.6Zm4.4-16.495a.368.368,0,0,1,.367.367v13.2a.381.381,0,0,1-.254.353L1.585,16.487a.4.4,0,0,1-.12.016.368.368,0,0,1-.366-.367V2.94a.381.381,0,0,1,.254-.353L5.745,1.124a.4.4,0,0,1,.119-.016Zm0,0" transform="translate(10.264 -0.008)" fill="#00003d"/>
    <path id="Trazado_4033" data-name="Trazado 4033" d="M27.218,5.873a.55.55,0,0,0,.55-.55v-3.3a.918.918,0,0,1,.916-.916h8.247a.55.55,0,0,0,0-1.1H28.684a2.018,2.018,0,0,0-2.016,2.016v3.3A.55.55,0,0,0,27.218,5.873Zm0,0" transform="translate(-20.803 -0.008)" fill="#00003d"/>
    <path id="Trazado_4034" data-name="Trazado 4034" d="M183.348,283.2h2.933a.55.55,0,0,0,0-1.1h-2.933a.918.918,0,0,1-.916-.916v-3.3a.55.55,0,1,0-1.1,0v3.3A2.018,2.018,0,0,0,183.348,283.2Zm0,0" transform="translate(-175.467 -267.81)" fill="#00003d"/>
  </g>
</svg>
