<svg id="Icono_perfil1" xmlns="http://www.w3.org/2000/svg" width="21.205" height="21.205" viewBox="0 0 21.205 21.205">
  <path id="Trazado_4645" data-name="Trazado 4645" d="M562.8,182.546a10.6,10.6,0,1,1-10.6-10.6A10.6,10.6,0,0,1,562.8,182.546Z" transform="translate(-541.596 -171.943)" fill="#00003d"/>
  <g id="Grupo_3477" data-name="Grupo 3477" transform="translate(4.857 4.956)">
    <g id="Grupo_2550" data-name="Grupo 2550" transform="translate(3.096 3.096)">
      <path id="Trazado_4648" data-name="Trazado 4648" d="M551.3,179a2.651,2.651,0,1,1-2.652-2.65A2.652,2.652,0,0,1,551.3,179Z" transform="translate(-546.002 -176.349)" fill="#efda30"/>
    </g>
    <g id="Grupo_2551" data-name="Grupo 2551">
      <path id="Trazado_4649" data-name="Trazado 4649" d="M550.032,186.127a5.746,5.746,0,1,1,5.747-5.747A5.753,5.753,0,0,1,550.032,186.127Zm0-10.059a4.312,4.312,0,1,0,4.312,4.312A4.318,4.318,0,0,0,550.032,176.067Z" transform="translate(-544.287 -174.634)" fill="#efda30"/>
    </g>
  </g>
</svg>
