<svg id="Icono_contraseña" xmlns="http://www.w3.org/2000/svg" width="16.134" height="21.512" viewBox="0 0 16.134 21.512">
  <path id="Trazado_62" data-name="Trazado 62" d="M78.117,205.445h-12.1A2.019,2.019,0,0,1,64,203.428v-9.411A2.019,2.019,0,0,1,66.017,192h12.1a2.019,2.019,0,0,1,2.017,2.017v9.411A2.019,2.019,0,0,1,78.117,205.445Zm-12.1-12.1a.673.673,0,0,0-.672.672v9.411a.673.673,0,0,0,.672.672h12.1a.673.673,0,0,0,.672-.672v-9.411a.673.673,0,0,0-.672-.672Z" transform="translate(-64 -183.933)" fill="#fff"/>
  <path id="Trazado_63" data-name="Trazado 63" d="M138.084,9.411a.672.672,0,0,1-.672-.672V5.378a4.033,4.033,0,1,0-8.067,0V8.739a.672.672,0,0,1-1.344,0V5.378a5.378,5.378,0,1,1,10.756,0V8.739A.672.672,0,0,1,138.084,9.411Z" transform="translate(-125.311)" fill="#fff"/>
  <path id="Trazado_64" data-name="Trazado 64" d="M215.126,280.918a1.793,1.793,0,1,1,1.793-1.793A1.794,1.794,0,0,1,215.126,280.918Zm0-2.241a.448.448,0,1,0,.448.448A.449.449,0,0,0,215.126,278.677Z" transform="translate(-207.059 -265.681)" fill="#fff"/>
  <path id="Trazado_65" data-name="Trazado 65" d="M240.672,339.809a.672.672,0,0,1-.672-.672v-2.465a.672.672,0,1,1,1.344,0v2.465A.672.672,0,0,1,240.672,339.809Z" transform="translate(-232.605 -321.883)" fill="#fff"/>
</svg>
