<svg id="Icono_perfil2" xmlns="http://www.w3.org/2000/svg" width="21.206" height="21.205" viewBox="0 0 21.206 21.205">
  <path id="Trazado_4646" data-name="Trazado 4646" d="M614.654,182.546a10.6,10.6,0,1,1-10.6-10.6A10.6,10.6,0,0,1,614.654,182.546Z" transform="translate(-593.449 -171.943)" fill="#00003d"/>
  <g id="Grupo_2553" data-name="Grupo 2553" transform="translate(7.878 5.967)">
    <path id="Trazado_4650" data-name="Trazado 4650" d="M601.063,183.556v1.134h-.83v-1.123a4.422,4.422,0,0,1-2.475-.839l.453-1.022a3.887,3.887,0,0,0,2.022.769v-2.022c-1.121-.273-2.325-.637-2.325-2.043,0-1.031.749-1.931,2.325-2.081v-1.144h.83v1.123a4.346,4.346,0,0,1,2.052.617l-.413,1.022a4.2,4.2,0,0,0-1.639-.547v2.043c1.123.273,2.346.626,2.346,2.031C603.409,182.505,602.65,183.4,601.063,183.556Zm-.83-4.327v-1.8c-.717.112-1.02.475-1.02.921C599.213,178.836,599.648,179.058,600.233,179.229Zm1.883,2.336c0-.5-.446-.727-1.052-.9v1.789C601.8,182.343,602.115,182,602.115,181.565Z" transform="translate(-597.758 -175.184)" fill="#efda30"/>
  </g>
</svg>
