<svg id="Icono_carrito_compras" xmlns="http://www.w3.org/2000/svg" width="20.798" height="18.438" viewBox="0 0 20.798 18.438">
  <g id="Grupo_3467" data-name="Grupo 3467" transform="translate(344 423)">
    <g id="Grupo_3466" data-name="Grupo 3466" transform="translate(-344 -423)">
      <path id="Trazado_5907" data-name="Trazado 5907" d="M-1713.186-453.227c.172.683.334,1.324.5,1.965q.533,2.1,1.067,4.2a1.113,1.113,0,0,0,1.217.944h9.833a1.1,1.1,0,0,0,1.212-.972q.615-2.9,1.228-5.807c.056-.267.011-.327-.263-.328-.527,0-1.055,0-1.582,0a.548.548,0,0,1-.615-.522.5.5,0,0,1,.48-.551c.67-.013,1.343-.032,2.011.01a1.227,1.227,0,0,1,1.057,1.489q-.6,2.884-1.215,5.764a3.339,3.339,0,0,1-.189.671,2.074,2.074,0,0,1-1.983,1.326c-3.376.017-6.751.012-10.127,0a2.155,2.155,0,0,1-2.1-1.7q-.882-3.466-1.762-6.932c-.4-1.567-.8-3.134-1.187-4.7a.344.344,0,0,0-.408-.308c-.406.016-.814.007-1.22,0a.537.537,0,0,1-.581-.53.544.544,0,0,1,.566-.551c.49-.01.98-.016,1.469,0a1.231,1.231,0,0,1,1.175.955q.551,2.13,1.083,4.265c.041.165.1.233.282.229.58-.013,1.16-.007,1.74,0,.383,0,.618.21.618.537a.549.549,0,0,1-.615.546c-.467.006-.934,0-1.4,0Z" transform="translate(1717.818 459.767)" fill="#00003d"/>
      <path id="Trazado_5908" data-name="Trazado 5908" d="M-1273.109-274.42a4.33,4.33,0,0,1-4.437-4.121,4.32,4.32,0,0,1,3.98-4.539,4.326,4.326,0,0,1,4.682,4.038A4.333,4.333,0,0,1-1273.109-274.42Zm3.148-4.319a3.242,3.242,0,0,0-3.244-3.269,3.257,3.257,0,0,0-3.265,3.209,3.267,3.267,0,0,0,3.227,3.3A3.256,3.256,0,0,0-1269.961-278.739Z" transform="translate(1285.292 286.201)" fill="#00003d"/>
      <path id="Trazado_5909" data-name="Trazado 5909" d="M-1338.243,424.622a1.44,1.44,0,0,1,1.442,1.452,1.453,1.453,0,0,1-1.439,1.438,1.455,1.455,0,0,1-1.454-1.447A1.44,1.44,0,0,1-1338.243,424.622Zm.356,1.429a.355.355,0,0,0-.372-.343.356.356,0,0,0-.348.368.371.371,0,0,0,.372.35A.37.37,0,0,0-1337.887,426.052Z" transform="translate(1346.342 -409.075)" fill="#00003d"/>
      <path id="Trazado_5910" data-name="Trazado 5910" d="M-882.109,426.042a1.434,1.434,0,0,1,1.479-1.411,1.447,1.447,0,0,1,1.414,1.461,1.461,1.461,0,0,1-1.474,1.429A1.446,1.446,0,0,1-882.109,426.042Zm1.8.043a.358.358,0,0,0-.348-.369.351.351,0,0,0-.371.343.363.363,0,0,0,.344.376A.375.375,0,0,0-880.3,426.085Z" transform="translate(896.801 -409.082)" fill="#00003d"/>
    </g>
  </g>
  <circle id="Elipse_263" data-name="Elipse 263" cx="3.5" cy="3.5" r="3.5" transform="translate(8.5 3.876)" fill="#efda30"/>
  <text id="_0" data-name="0" transform="translate(10.5 8.876)" fill="#00003d" font-size="5" font-family="OpenSans-Bold, Open Sans" font-weight="700"><tspan x="0" y="0">0</tspan></text>
</svg>
