<svg id="Icono_perfil3" xmlns="http://www.w3.org/2000/svg" width="21.205" height="21.205" viewBox="0 0 21.205 21.205">
  <path id="Trazado_4647" data-name="Trazado 4647" d="M666.507,182.546a10.6,10.6,0,1,1-10.6-10.6A10.6,10.6,0,0,1,666.507,182.546Z" transform="translate(-645.302 -171.943)" fill="#00003d"/>
  <g id="Grupo_2554" data-name="Grupo 2554" transform="translate(7.366 6.042)">
    <path id="Trazado_4651" data-name="Trazado 4651" d="M654.444,177.422a2.2,2.2,0,1,1-2.2-2.2A2.2,2.2,0,0,1,654.444,177.422Z" transform="translate(-648.847 -175.225)" fill="#efda30"/>
    <path id="Trazado_4652" data-name="Trazado 4652" d="M655.02,182.4h-4.473a1.165,1.165,0,0,1-1.164-1.164h0a3.308,3.308,0,0,1,3.309-3.309h.182a3.309,3.309,0,0,1,3.31,3.309h0A1.165,1.165,0,0,1,655.02,182.4Z" transform="translate(-649.383 -173.046)" fill="#efda30"/>
  </g>
</svg>
