<svg id="Logo_azul" xmlns="http://www.w3.org/2000/svg" width="36.339" height="26.538" viewBox="0 0 36.339 26.538">
  <g id="Grupo_2578" data-name="Grupo 2578">
    <g id="Grupo_2575" data-name="Grupo 2575" transform="translate(0)">
      <path id="Trazado_5259" data-name="Trazado 5259" d="M991.953,176.1h-5.2v-3.071h1.938c1.582,0,3.166.047,4.745-.02.748-.032,1.009.223,1.185.925,1.585,6.325,3.209,12.64,4.822,18.958.019.074.046.147.079.251a5.154,5.154,0,0,0,.524.051c5.083,0,10.166.014,15.249,0a4.413,4.413,0,0,0,4.193-2.455,4.349,4.349,0,0,0-.258-4.647,4.673,4.673,0,0,0-4.285-2.026c.508-1,.956-1.907,1.448-2.794.06-.108.368-.142.544-.111a7.623,7.623,0,0,1-.175,14.992.769.769,0,0,1-.888-.39,2.732,2.732,0,0,0-4.633.036,1.4,1.4,0,0,1-.789.441,7.791,7.791,0,0,1-1.007.023,2.157,2.157,0,0,1-2.166-.885,2.589,2.589,0,0,0-4.148.3,1.164,1.164,0,0,1-1.13.589c-1.374-.028-2.749-.033-4.123,0-.572.015-.795-.18-.937-.745-1.568-6.223-3.169-12.437-4.763-18.653C992.111,176.629,992.035,176.386,991.953,176.1Z" transform="translate(-986.749 -173.009)" fill="#00003d"/>
      <path id="Trazado_5260" data-name="Trazado 5260" d="M1088.991,202.761c-.5.992-.926,1.9-1.425,2.765-.1.171-.481.248-.734.25-1.968.02-3.937.011-5.969.011l.31,1.23h9.522c-.493.979-.92,1.855-1.381,2.714a.587.587,0,0,1-.447.214c-3.472.012-6.945.009-10.491.009l-3.016-11.235h13.056c-.481.961-.916,1.884-1.415,2.771-.084.149-.448.193-.683.194-2.151.014-4.3.008-6.469.008-.06.749.167,1.063.972,1.046,2.411-.053,4.823-.021,7.235-.018C1088.332,202.72,1088.605,202.743,1088.991,202.761Z" transform="translate(-1061.572 -194.717)" fill="#00003d"/>
      <path id="Trazado_5261" data-name="Trazado 5261" d="M1146.817,314.085a2.292,2.292,0,1,1-2.376,2.185A2.333,2.333,0,0,1,1146.817,314.085Zm-.031,1.44c-.3.355-.636.58-.615.764.028.246.332.46.518.688.219-.2.555-.367.619-.607C1147.353,316.192,1147.045,315.921,1146.785,315.525Z" transform="translate(-1119.901 -292.131)" fill="#00003d"/>
      <path id="Trazado_5262" data-name="Trazado 5262" d="M1096.071,316.344a2.3,2.3,0,1,1-2.288-2.283A2.347,2.347,0,0,1,1096.071,316.344Zm-2.356-.878c-.26.458-.534.726-.507.958.024.2.447.551.587.506a.953.953,0,0,0,.552-.645C1094.374,316.1,1094.042,315.868,1093.715,315.465Z" transform="translate(-1075.181 -292.112)" fill="#00003d"/>
    </g>
  </g>
</svg>
