<svg id="Logo" xmlns="http://www.w3.org/2000/svg" width="109.598" height="80.038" viewBox="0 0 109.598 80.038">
  <path id="Trazado_5259" data-name="Trazado 5259" d="M1002.444,182.34h-15.7v-9.262H992.6c4.771,0,9.548.143,14.311-.061,2.257-.1,3.043.673,3.573,2.791,4.78,19.076,9.679,38.122,14.544,57.176.057.224.138.443.237.757a15.553,15.553,0,0,0,1.58.154c15.33.011,30.661.043,45.991,0,5.6-.017,10.027-2.335,12.647-7.4a13.117,13.117,0,0,0-.778-14.015c-2.927-4.429-7.3-6.147-12.924-6.11,1.533-3.005,2.884-5.753,4.366-8.426.18-.324,1.109-.428,1.639-.336,10.525,1.828,18.62,11.8,18.563,22.813a23.342,23.342,0,0,1-19.091,22.4,2.32,2.32,0,0,1-2.677-1.176c-3.535-5.186-10.317-5.028-13.973.109a4.234,4.234,0,0,1-2.379,1.329,23.494,23.494,0,0,1-3.036.069,6.5,6.5,0,0,1-6.532-2.67c-3.19-4.069-9.567-3.44-12.511.911a3.511,3.511,0,0,1-3.41,1.775c-4.144-.084-8.292-.1-12.435.007-1.726.044-2.4-.542-2.827-2.247-4.73-18.767-9.559-37.51-14.365-56.258C1002.922,183.926,1002.691,183.2,1002.444,182.34Z" transform="translate(-986.749 -173.009)" fill="#fff"/>
  <path id="Trazado_5260" data-name="Trazado 5260" d="M1116.469,210.912c-1.511,2.993-2.792,5.73-4.3,8.339-.3.516-1.45.747-2.212.755-5.936.06-11.874.033-18,.033l.936,3.709h28.719c-1.486,2.953-2.776,5.6-4.167,8.185a1.77,1.77,0,0,1-1.348.644c-10.473.036-20.946.028-31.641.028l-9.095-33.886h39.378c-1.452,2.9-2.762,5.683-4.268,8.357-.253.448-1.352.581-2.061.586-6.488.043-12.975.025-19.509.025-.182,2.257.5,3.207,2.932,3.154,7.27-.16,14.547-.063,21.821-.055C1114.48,210.787,1115.306,210.858,1116.469,210.912Z" transform="translate(-1033.773 -186.652)" fill="#efda30"/>
  <path id="Trazado_5261" data-name="Trazado 5261" d="M1151.61,314.089a6.914,6.914,0,1,1-7.165,6.59A7.037,7.037,0,0,1,1151.61,314.089Zm-.095,4.342c-.911,1.07-1.918,1.749-1.855,2.3.084.741,1,1.387,1.561,2.074.661-.6,1.675-1.107,1.866-1.831C1153.228,320.444,1152.3,319.626,1151.515,318.431Z" transform="translate(-1070.431 -247.874)" fill="#fff"/>
  <path id="Trazado_5262" data-name="Trazado 5262" d="M1105.331,320.945a6.926,6.926,0,1,1-6.9-6.885A7.079,7.079,0,0,1,1105.331,320.945Zm-7.106-2.649c-.784,1.382-1.611,2.189-1.529,2.89.072.612,1.348,1.662,1.769,1.525a2.877,2.877,0,0,0,1.665-1.945C1100.212,320.219,1099.211,319.51,1098.224,318.3Z" transform="translate(-1042.326 -247.862)" fill="#fff"/>
</svg>
